# xmcd CD database file generated by OrangeCD 5.2
#
# Track frame offsets:
#	150
#	15088
#	30342
#	44621
#	55404
#	74975
#	85845
#	102447
#	113255
#	130351
#	142775
#	151706
#	172127
#	181510
#	195489
#	206160
#	216955
#
# Disc length: 3074 seconds
#
# Revision: 1
# Processed by: cddbd v1.5.1PL0 Copyright (c) Steve Scherf et al.
# Submitted via: OrangeCD 5.2
#
DISCID=e40c0011
DTITLE=Various Artist - American Roots [CD2]
DYEAR=2002
DGENRE=Comedy
TTITLE0=Eric WeissBurg and Steve Mondell - Duelling Banjos
TTITLE1=Bob Dylan - Girl From The North Country
TTITLE2=Taj Mahal - Fishin' Blues
TTITLE3=Louvin Brothers - If I Could Only Win Your Love
TTITLE4=Emmylou Harris - Deeper Well
TTITLE5=Poco - Fools Gold
TTITLE6=Eva Cassidy - Penny To My Name
TTITLE7=Johnson Mountain Boys - Tomorrow I'll Be Gone
TTITLE8=Nanci Griffith - Banks Of The Pontchartrain
TTITLE9=Mississippi John Hurt - Trouble I've Had It All My Days
TTITLE10=Dave Grisman - I Ain't Broke But I'm Badly Bent
TTITLE11=Hazel Dickens - West Virginia My Home
TTITLE12=Country Gentlemen - Weeping Willow
TTITLE13=Lynn Morris Band - You'll Get No More Out Of Me
TTITLE14=Lester Flatt and Earl Scruggs - Foggy Mountain Breakdown
TTITLE15=Hank Williams Jr - I Fought The Law
TTITLE16=Charlie Daniels Band - Orange Blossom Special
EXTD=
EXTT0=
EXTT1=
EXTT2=
EXTT3=
EXTT4=
EXTT5=
EXTT6=
EXTT7=
EXTT8=
EXTT9=
EXTT10=
EXTT11=
EXTT12=
EXTT13=
EXTT14=
EXTT15=
EXTT16=
PLAYORDER=
